<?xml version="1.0" encoding="UTF-8"?>
<svg width="24px" height="15px" viewBox="0 0 24 15" version="1.1" xmlns="http://www.w3.org/2000/svg" xmlns:xlink="http://www.w3.org/1999/xlink">
    <!-- Generator: Sketch 48.2 (47327) - http://www.bohemiancoding.com/sketch -->
    <title>Mobile Signal</title>
    <desc>Created with Sketch.</desc>
    <defs></defs>
    <g id="iPhone-X" stroke="none" stroke-width="1" fill="none" fill-rule="evenodd" transform="translate(-164.000000, -153.000000)">
        <path d="M165.411765,162.375 L166.823529,162.375 C167.603226,162.375 168.235294,163.0046 168.235294,163.78125 L168.235294,166.59375 C168.235294,167.3704 167.603226,168 166.823529,168 L165.411765,168 C164.632069,168 164,167.3704 164,166.59375 L164,163.78125 C164,163.0046 164.632069,162.375 165.411765,162.375 Z M172,159.5625 L173.411765,159.5625 C174.191461,159.5625 174.823529,160.1921 174.823529,160.96875 L174.823529,166.59375 C174.823529,167.3704 174.191461,168 173.411765,168 L172,168 C171.220304,168 170.588235,167.3704 170.588235,166.59375 L170.588235,160.96875 C170.588235,160.1921 171.220304,159.5625 172,159.5625 Z M178.588235,156.28125 L180,156.28125 C180.779696,156.28125 181.411765,156.91085 181.411765,157.6875 L181.411765,166.59375 C181.411765,167.3704 180.779696,168 180,168 L178.588235,168 C177.808539,168 177.176471,167.3704 177.176471,166.59375 L177.176471,157.6875 C177.176471,156.91085 177.808539,156.28125 178.588235,156.28125 Z M185.176471,153 L186.588235,153 C187.367931,153 188,153.6296 188,154.40625 L188,166.59375 C188,167.3704 187.367931,168 186.588235,168 L185.176471,168 C184.396774,168 183.764706,167.3704 183.764706,166.59375 L183.764706,154.40625 C183.764706,153.6296 184.396774,153 185.176471,153 Z" id="Mobile-Signal" fill="#9B9B9B" fill-rule="nonzero"></path>
    </g>
</svg>