<svg id="Layer_1" data-name="Layer 1" xmlns="http://www.w3.org/2000/svg" width="64" height="64" viewBox="0 0 64 64"><defs><style>.cls-1{fill:#666;}</style></defs><title>map_route</title><path id="map_route" class="cls-1" d="M52.43,26.75L54.8,23.6a1,1,0,1,0-1.6-1.2l-2.43,3.24-2.21-1.48a1,1,0,1,0-1.11,1.66l2.12,1.41L47.2,30.4a1,1,0,0,0,1.6,1.2l2.43-3.24,2.21,1.48a1,1,0,0,0,1.11-1.66ZM59.58,6.19a1,1,0,0,0-.9-0.14L41,11.95,23.32,6.05A2,2,0,0,0,23,6a2,2,0,0,0-.32.05l-18,6A1,1,0,0,0,4,13V57a1,1,0,0,0,1.32.95L23,52.05l17.68,5.9A2.19,2.19,0,0,0,41,58a2,2,0,0,0,.32-0.05l18-6A1,1,0,0,0,60,51V7A1,1,0,0,0,59.58,6.19ZM24,25.9a1,1,0,0,0,.54-0.77,1,1,0,0,0-.54-1V8.39l16,5.33V55.61L24,50.28V25.9ZM6,13.72L22,8.39V24.11a6,6,0,0,0-.67.12,1,1,0,0,0,.26,2,1,1,0,0,0,.26,0l0.15,0V50.28L6,55.61V13.72ZM58,50.28L42,55.61V43c0.44,0,.88-0.06,1.29-0.13a1,1,0,0,0-.3-2c-0.32,0-.65.08-1,0.1V13.72L58,8.39V50.28ZM14,36a1.06,1.06,0,0,1-.29,0A1,1,0,0,1,13,34.71s0.11-.38.34-1a1,1,0,0,1,1.88.69c-0.2.53-.3,0.87-0.3,0.88A1,1,0,0,1,14,36Zm14.46-9.25A1,1,0,0,0,27,28.08a14.93,14.93,0,0,1,1.14,1.46,1,1,0,1,0,1.64-1.14A17.13,17.13,0,0,0,28.46,26.75Zm3.88,6a1,1,0,1,0-1.75,1c0.32,0.58.65,1.16,1,1.74a1,1,0,0,0,.87.5,1,1,0,0,0,.5-0.13,1,1,0,0,0,.37-1.37C33,33.87,32.66,33.3,32.34,32.73Zm4.92,6.88A9.94,9.94,0,0,1,36,38.36a1,1,0,0,0-1.51,1.31A12,12,0,0,0,36,41.17,1,1,0,1,0,37.26,39.61ZM16.86,27.38a17,17,0,0,0-1.23,1.71,1,1,0,0,0,1.69,1.07,14.82,14.82,0,0,1,1.08-1.5A1,1,0,1,0,16.86,27.38ZM47.66,41a1,1,0,0,0,.62-0.22,9.12,9.12,0,0,0,1.55-1.58A1,1,0,0,0,48.24,38,7.09,7.09,0,0,1,47,39.21,1,1,0,0,0,47.66,41Zm3.26-6H50.77a1,1,0,0,1-.85-1.13A6.88,6.88,0,0,0,50,33a1,1,0,0,1,1-1h0a1,1,0,0,1,1,1,8.62,8.62,0,0,1-.1,1.13A1,1,0,0,1,50.91,35Z"/></svg>