<svg version="1" xmlns="http://www.w3.org/2000/svg" width="24" height="24" viewBox="0 0 24 24"><g><path d="M12 0c-6.617 0-12 5.383-12 12s5.383 12 12 12 12-5.383 12-12-5.383-12-12-12zm0 23c-6.065 0-11-4.935-11-11s4.935-11 11-11 11 4.935 11 11-4.935 11-11 11zM17.81 5.538l-8.5 3.5-.124.15-.148.122-3.5 8.5c-.077.187-.034.401.108.544.096.095.224.146.354.146l.19-.038 8.5-3.5.124-.15.148-.122 3.5-8.5c.077-.187.034-.401-.108-.544-.143-.142-.358-.185-.544-.108zm-10.891 11.543l2.758-6.697 3.939 3.939-6.697 2.758zm7.404-3.465l-3.939-3.939 6.697-2.757-2.758 6.696z"/></g></svg>