<svg id="Layer_1" data-name="Layer 1" xmlns="http://www.w3.org/2000/svg" width="64" height="64" viewBox="0 0 64 64"><defs><style>.cls-1{fill:#666;}</style></defs><title>notebook</title><path id="notebook" class="cls-1" d="M45,22H23a1,1,0,0,1,0-2H45A1,1,0,0,1,45,22Zm-4,6H27a1,1,0,0,1,0-2H41A1,1,0,0,1,41,28ZM50,6H16a4,4,0,0,0-4,4v4H11a1,1,0,0,0,0,2h1v4H11a1,1,0,0,0,0,2h1v4H11a1,1,0,0,0,0,2h1v4H11a1,1,0,0,0,0,2h1v4H11a1,1,0,0,0,0,2h1v4H11a1,1,0,0,0,0,2h1v4H11a1,1,0,0,0,0,2h1v4a4,4,0,0,0,4,4H50a4,4,0,0,0,4-4V10A4,4,0,0,0,50,6Zm2,50a2,2,0,0,1-2,2H16a2,2,0,0,1-2-2V52h3a1,1,0,0,0,0-2H14V46h3a1,1,0,0,0,0-2H14V40h3a1,1,0,0,0,0-2H14V34h3a1,1,0,1,0,0-2H14V28h3a1,1,0,0,0,0-2H14V22h3a1,1,0,0,0,0-2H14V16h3a1,1,0,0,0,0-2H14V10a2,2,0,0,1,2-2H50a2,2,0,0,1,2,2V56Z"/></svg>