<svg id="Layer_1" data-name="Layer 1" xmlns="http://www.w3.org/2000/svg" width="64" height="64" viewBox="0 0 64 64"><defs><style>.cls-1{fill:#666;}</style></defs><title>cogs</title><path class="cls-1" d="M35.21,15.28l1.24,0.51a11.15,11.15,0,0,0,0,2.45l-1,.42a2,2,0,0,0-1,2.54l0.72,1.74a2,2,0,0,0,2.54,1l1-.42a10.49,10.49,0,0,0,1.73,1.73l-0.51,1.24a2,2,0,0,0,1.06,2.56l1.78,0.74a1.93,1.93,0,0,0,.75.15,2,2,0,0,0,1.81-1.21l0.51-1.24a11.15,11.15,0,0,0,2.45,0l0.42,1a2,2,0,0,0,2.54,1L53,28.89a1.94,1.94,0,0,0,1-2.54l-0.42-1a10.89,10.89,0,0,0,1.73-1.73l1.23,0.51A2,2,0,0,0,59.1,23l0.74-1.78a2,2,0,0,0-1.06-2.56l-1.24-.51a11.15,11.15,0,0,0,0-2.45l1-.42a2,2,0,0,0,1-2.54L58.89,11A2,2,0,0,0,56.35,10l-1,.42A10.55,10.55,0,0,0,53.6,8.67l0.51-1.23A2,2,0,0,0,53,4.87l-1.78-.73A2,2,0,0,0,48.7,5.2L48.19,6.43a11.15,11.15,0,0,0-2.45,0l-0.42-1a2,2,0,0,0-2.54-1.05L41,5.1a2,2,0,0,0-1,2.54l0.42,1a11.38,11.38,0,0,0-1.74,1.73l-1.23-.51a2,2,0,0,0-2.56,1.06l-0.74,1.78A2,2,0,0,0,35.21,15.28Zm1.47-3.55,2,0.81a1,1,0,0,0,1.21-.37,8.68,8.68,0,0,1,2.34-2.34,1,1,0,0,0,.37-1.21L41.81,6.95l1.67-.75L44.2,7.95a1,1,0,0,0,1.12.6,8.57,8.57,0,0,1,3.31,0,1,1,0,0,0,1.12-.6L50.52,6l1.76,0.69-0.81,2a1,1,0,0,0,.37,1.21,8.44,8.44,0,0,1,2.34,2.35,1,1,0,0,0,1.21.37l1.68-.76,0.75,1.67-1.75.72a1,1,0,0,0-.6,1.12,8.77,8.77,0,0,1,0,3.31,1,1,0,0,0,.6,1.11L58,20.52l-0.69,1.76-2-.81a1,1,0,0,0-1.21.37,8.68,8.68,0,0,1-2.34,2.34,1,1,0,0,0-.37,1.21l0.75,1.67-1.67.75-0.72-1.75a1,1,0,0,0-1.12-.6,8.57,8.57,0,0,1-3.31,0,1,1,0,0,0-1.11.6L43.45,28l-1.72-.67,0.81-2a1,1,0,0,0-.37-1.21,8.68,8.68,0,0,1-2.34-2.34A1,1,0,0,0,39,21.36a0.84,0.84,0,0,0-.38.08l-1.68.76-0.75-1.67,1.75-.72a1,1,0,0,0,.6-1.12,8.77,8.77,0,0,1,0-3.31,1,1,0,0,0-.6-1.11L36,13.48Z"/><path class="cls-1" d="M24,48a8,8,0,1,0-8-8A8,8,0,0,0,24,48Zm0-14a6,6,0,1,1-6,6A6,6,0,0,1,24,34Z"/><path class="cls-1" d="M6.46,44H8.89a14.8,14.8,0,0,0,1.68,4L9.1,49.43a2.43,2.43,0,0,0,0,3.44l2,2a2.49,2.49,0,0,0,3.44,0L16,53.43a15.08,15.08,0,0,0,4,1.68v2.43A2.53,2.53,0,0,0,22.54,60h2.92A2.53,2.53,0,0,0,28,57.54V55.11a15.1,15.1,0,0,0,4-1.67l1.47,1.47a2.49,2.49,0,0,0,3.44,0l2-2a2.44,2.44,0,0,0,0-3.44L37.44,48a15.34,15.34,0,0,0,1.68-4h2.43A2.53,2.53,0,0,0,44,41.46V38.54A2.53,2.53,0,0,0,41.55,36H39.12a15.14,15.14,0,0,0-1.68-4l1.47-1.47a2.43,2.43,0,0,0,0-3.44l-2-2a2.49,2.49,0,0,0-3.44,0L32,26.56a15,15,0,0,0-4-1.68V22.46A2.53,2.53,0,0,0,25.46,20H22.54A2.53,2.53,0,0,0,20,22.46v2.42a15.28,15.28,0,0,0-4,1.68l-1.47-1.47a2.49,2.49,0,0,0-3.44,0l-2,2a2.44,2.44,0,0,0,0,3.44L10.57,32a14.68,14.68,0,0,0-1.68,4H6.46A2.53,2.53,0,0,0,4,38.54v2.92A2.53,2.53,0,0,0,6.46,44ZM6,38.54A0.54,0.54,0,0,1,6.46,38H9.68a1,1,0,0,0,1-.8,13,13,0,0,1,2-4.75,1,1,0,0,0-.12-1.26l-2-2a0.43,0.43,0,0,1,0-.62l2-2a0.43,0.43,0,0,1,.62,0l2,2a1,1,0,0,0,1.26.12,13.1,13.1,0,0,1,4.75-2,1,1,0,0,0,.8-1V22.46A0.54,0.54,0,0,1,22.55,22h2.92a0.54,0.54,0,0,1,.54.46v3.21a1,1,0,0,0,.8,1,13.25,13.25,0,0,1,4.75,2,1,1,0,0,0,1.26-.13l2-2a0.36,0.36,0,0,1,.61,0l2,2a0.43,0.43,0,0,1,0,.61l-2,2a1,1,0,0,0-.13,1.26,13.46,13.46,0,0,1,2,4.75,1,1,0,0,0,1,.8h3.22a0.54,0.54,0,0,1,.46.54v2.92a0.54,0.54,0,0,1-.46.54H38.32a1,1,0,0,0-1,.8,13,13,0,0,1-2,4.75,1,1,0,0,0,.12,1.26l2,2a0.43,0.43,0,0,1,0,.62l-2,2a0.37,0.37,0,0,1-.62,0l-2-2a1,1,0,0,0-1.26-.12,13.23,13.23,0,0,1-4.75,2,1,1,0,0,0-.8,1v3.22a0.54,0.54,0,0,1-.54.46H22.53A0.52,0.52,0,0,1,22,57.54V54.32a1,1,0,0,0-.8-1,13,13,0,0,1-4.75-2,1,1,0,0,0-1.27.12l-2,2a0.36,0.36,0,0,1-.61,0l-2-2a0.44,0.44,0,0,1,0-.62l2-2a1,1,0,0,0,.12-1.26,13.31,13.31,0,0,1-2-4.75,1,1,0,0,0-1-.8H6.46A0.53,0.53,0,0,1,6,41.46V38.54Z"/><path class="cls-1" d="M47,22a5,5,0,1,0-5-5A5,5,0,0,0,47,22Zm0-8a3,3,0,1,1-3,3A3,3,0,0,1,47,14Z"/></svg>