<svg id="Layer_1" data-name="Layer 1" xmlns="http://www.w3.org/2000/svg" width="64" height="64" viewBox="0 0 64 64"><defs><style>.cls-1{fill:#666;}</style></defs><title>bluetooth</title><path id="bluetooth" class="cls-1" d="M31,60c-10.83,0-19-8.6-19-20V24C12,12.6,20.17,4,31,4s19,8.6,19,20V40C50,51.4,41.83,60,31,60ZM31,6c-9.69,0-17,7.74-17,18V40c0,10.26,7.31,18,17,18s17-7.74,17-18V24C48,13.74,40.69,6,31,6Zm0,48a1,1,0,0,1-.4-0.08A1,1,0,0,1,30,53V34.7l-10.34,9a1,1,0,0,1-1.32-1.51L30,32V32L18.34,21.75a1,1,0,1,1,1.32-1.51L30,29.3V11a1,1,0,0,1,1.68-.74l12,11a1,1,0,0,1,0,1.49L33.09,32l10.57,9.25a1,1,0,0,1,0,1.49l-12,11A1,1,0,0,1,31,54Zm1-20.3v17L41.5,42Zm0-20.43v17L41.5,22Z"/></svg>